<svg width="14" height="12" viewBox="0 0 14 12" fill="none" xmlns="http://www.w3.org/2000/svg">
<path d="M1.2769 11.7341H1.16034C1.03602 11.7341 0.916791 11.6847 0.828883 11.5968C0.740975 11.5089 0.691589 11.3896 0.691589 11.2653V7.8203C0.691589 5.30062 2.7419 3.24999 5.26159 3.24999H6.83065V1.21093C6.83089 1.12055 6.85726 1.03216 6.90658 0.956423C6.95589 0.880681 7.02605 0.820811 7.10861 0.784024C7.19117 0.747237 7.2826 0.735101 7.37189 0.749078C7.46119 0.763056 7.54454 0.80255 7.6119 0.862805L13.0994 5.80874C13.1481 5.85269 13.1871 5.90639 13.2138 5.96636C13.2405 6.02633 13.2542 6.09123 13.2542 6.15687C13.2542 6.2225 13.2405 6.2874 13.2138 6.34737C13.1871 6.40734 13.1481 6.46104 13.0994 6.50499L7.61346 11.4512C7.54608 11.5115 7.4627 11.551 7.37338 11.565C7.28405 11.5789 7.1926 11.5668 7.11003 11.53C7.02746 11.4931 6.9573 11.4332 6.90801 11.3574C6.85872 11.2816 6.8324 11.1932 6.83221 11.1028V9.06249H4.73909C4.05166 9.06234 3.38354 9.28996 2.83918 9.70976C2.29482 10.1296 1.90489 10.7179 1.73034 11.3828C1.70432 11.4833 1.64568 11.5723 1.56361 11.6359C1.48155 11.6994 1.38071 11.734 1.2769 11.7341ZM4.73909 8.12499H7.2994C7.42372 8.12499 7.54295 8.17438 7.63086 8.26229C7.71877 8.35019 7.76815 8.46942 7.76815 8.59374V10.0481L12.0853 6.15624L7.76815 2.26468V3.71874C7.76815 3.84306 7.71877 3.96229 7.63086 4.0502C7.54295 4.13811 7.42372 4.18749 7.2994 4.18749H5.26159C4.29847 4.18857 3.3751 4.57166 2.6941 5.25272C2.0131 5.93379 1.63008 6.85718 1.62909 7.8203V9.58155C2.0091 9.12574 2.48464 8.75902 3.02206 8.50732C3.55948 8.25562 4.14565 8.1251 4.73909 8.12499Z" fill="white"/>
</svg>
