<svg width="69" height="53" viewBox="0 0 69 53" fill="none" xmlns="http://www.w3.org/2000/svg">
<path d="M40.5 0.250007L40.5 20.25C40.5 26.9167 40.8333 32.3333 41.5 36.5C42.1667 40.8333 43.5 44.1667 45.5 46.5C47.5 49 50.3333 50.6667 54 51.5C57.6667 52.5 62.5833 53 68.75 53V43.75C64.75 43.75 61.6667 43.3333 59.5 42.5C57.3333 41.6667 55.8333 40.0833 55 37.75C54.3333 35.5833 54 32.3333 54 28V23.75H63.5V0.250007H40.5ZM7.59959e-07 0.250007L7.59959e-07 20.25C7.59959e-07 26.9167 0.333334 32.3333 1 36.5C1.66667 40.8333 3 44.1667 5 46.5C7 49 9.83333 50.6667 13.5 51.5C17.1667 52.5 22 53 28 53V43.75C24.1667 43.75 21.1667 43.3333 19 42.5C16.8333 41.6667 15.3333 40.0833 14.5 37.75C13.8333 35.5833 13.5 32.3333 13.5 28V23.75H22.75L22.75 0.250007H7.59959e-07Z" fill="white" fill-opacity="0.03"/>
</svg>
