<svg width="29" height="28" viewBox="0 0 29 28" fill="none" xmlns="http://www.w3.org/2000/svg">
<path d="M27.8236 13.4306C22.7666 13.4306 19.7068 13.4276 17.9207 12.7021C18.6598 10.9263 20.7975 8.76825 24.3735 5.19232L24.3998 5.16498C24.4555 5.10932 24.4996 5.04325 24.5297 4.97053C24.5599 4.89781 24.5754 4.81986 24.5754 4.74115C24.5754 4.66244 24.5599 4.5845 24.5297 4.51178C24.4996 4.43906 24.4555 4.37298 24.3998 4.31732C24.3442 4.26167 24.2781 4.21751 24.2054 4.18739C24.1326 4.15727 24.0547 4.14177 23.976 4.14177C23.8973 4.14177 23.8193 4.15727 23.7466 4.18739C23.6739 4.21751 23.6078 4.26166 23.5522 4.31732C19.9602 7.90932 17.7957 10.0558 16.0151 10.7964C15.2896 9.01038 15.2865 5.9505 15.2865 0.893449C15.2865 0.734422 15.2234 0.581909 15.1109 0.46946C14.9985 0.357012 14.8459 0.293839 14.6869 0.293839C14.5279 0.293839 14.3754 0.357012 14.2629 0.46946C14.1505 0.581909 14.0873 0.734422 14.0873 0.893449C14.0873 5.95045 14.0843 9.01034 13.3588 10.7964C11.5781 10.0557 9.41373 7.90936 5.82169 4.31732C5.76605 4.26156 5.69997 4.21732 5.62722 4.18713C5.55448 4.15693 5.47649 4.14136 5.39773 4.14132C5.31896 4.14128 5.24096 4.15677 5.16818 4.18689C5.0954 4.21702 5.02928 4.26119 4.97358 4.31689C4.91789 4.37259 4.87372 4.43871 4.84359 4.51149C4.81347 4.58427 4.79799 4.66227 4.79803 4.74104C4.79807 4.8198 4.81364 4.89779 4.84384 4.97054C4.87404 5.04328 4.91829 5.10936 4.97404 5.165L5.00041 5.19234C8.57634 8.76827 10.7141 10.9263 11.4532 12.7021C9.66717 13.4276 6.60722 13.4306 1.55017 13.4306C1.47143 13.4306 1.39346 13.4461 1.32071 13.4763C1.24796 13.5064 1.18186 13.5506 1.12618 13.6062C1.0705 13.6619 1.02634 13.728 0.996204 13.8008C0.966071 13.8735 0.950562 13.9515 0.950562 14.0302C0.950562 14.109 0.966071 14.1869 0.996204 14.2597C1.02634 14.3324 1.0705 14.3985 1.12618 14.4542C1.18186 14.5099 1.24796 14.5541 1.32071 14.5842C1.39346 14.6143 1.47143 14.6298 1.55017 14.6298C6.60717 14.6298 9.66706 14.6329 11.4532 15.3584C10.7124 17.139 8.56604 19.3034 4.97404 22.8954C4.86164 23.0079 4.79849 23.1603 4.79849 23.3193C4.79849 23.4782 4.86164 23.6307 4.97405 23.7431C5.08645 23.8555 5.23891 23.9187 5.39787 23.9187C5.55684 23.9187 5.7093 23.8555 5.8217 23.7431L5.84904 23.7167C9.42497 20.1408 11.583 18.0031 13.3588 17.264C14.0843 19.05 14.0873 22.1099 14.0873 27.167C14.0873 27.326 14.1505 27.4785 14.2629 27.591C14.3754 27.7034 14.5279 27.7666 14.6869 27.7666C14.846 27.7666 14.9985 27.7034 15.1109 27.591C15.2234 27.4785 15.2865 27.326 15.2865 27.167C15.2865 22.11 15.2895 19.05 16.0151 17.264C17.7908 18.0031 19.9489 20.1409 23.5248 23.7168L23.5522 23.7431C23.6078 23.799 23.6739 23.8433 23.7466 23.8735C23.8194 23.9038 23.8974 23.9194 23.9762 23.9195C24.055 23.9195 24.1331 23.9041 24.2059 23.8739C24.2787 23.8438 24.3449 23.7996 24.4006 23.7439C24.4563 23.6882 24.5005 23.622 24.5306 23.5492C24.5607 23.4764 24.5762 23.3983 24.5761 23.3195C24.5761 23.2407 24.5604 23.1627 24.5302 23.09C24.4999 23.0172 24.4556 22.9511 24.3998 22.8955C20.8078 19.3034 18.6614 17.1391 17.9207 15.3584C19.7068 14.6329 22.7666 14.6299 27.8237 14.6299C27.9827 14.6299 28.1352 14.5667 28.2477 14.4542C28.3601 14.3418 28.4233 14.1893 28.4233 14.0303C28.4233 13.8712 28.3601 13.7187 28.2477 13.6063C28.1352 13.4938 27.9827 13.4306 27.8236 13.4306Z" fill="white"/>
</svg>
