<svg width="18" height="18" viewBox="0 0 18 18" fill="none" xmlns="http://www.w3.org/2000/svg">
<path d="M3.06066 0.93934C2.47487 0.353553 1.52513 0.353553 0.93934 0.93934C0.353553 1.52513 0.353553 2.47487 0.93934 3.06066L3.06066 0.93934ZM16 17.5C16.8284 17.5 17.5 16.8284 17.5 16L17.5 2.5C17.5 1.67157 16.8284 1 16 1C15.1716 1 14.5 1.67157 14.5 2.5L14.5 14.5L2.5 14.5C1.67157 14.5 1 15.1716 1 16C1 16.8284 1.67157 17.5 2.5 17.5L16 17.5ZM0.93934 3.06066L14.9393 17.0607L17.0607 14.9393L3.06066 0.93934L0.93934 3.06066Z" fill="#06D889"/>
</svg>
