<svg width="81" height="154" viewBox="0 0 81 154" fill="none" xmlns="http://www.w3.org/2000/svg">
<path d="M64.6201 112.198H16.9776C16.7044 112.197 16.4356 112.268 16.1981 112.403C15.9607 112.539 15.7629 112.735 15.6247 112.971C15.4865 113.207 15.4126 113.476 15.4105 113.75C15.4084 114.024 15.4781 114.293 15.6127 114.532L19.0516 118.677H62.5402L65.9791 114.532C66.1134 114.294 66.1831 114.025 66.1813 113.751C66.1794 113.478 66.1061 113.21 65.9686 112.974C65.8311 112.737 65.6342 112.542 65.3975 112.406C65.1609 112.269 64.8928 112.198 64.6201 112.198Z" fill="white"/>
<path d="M74.9841 141.899H6.61371C5.85538 141.898 5.10433 142.047 4.40358 142.338C3.70283 142.628 3.06615 143.055 2.52993 143.592C1.99372 144.129 1.56852 144.768 1.27868 145.47C0.988841 146.172 0.840046 146.925 0.840823 147.685H80.757C80.7554 146.151 80.1467 144.68 79.0644 143.596C77.9821 142.511 76.5147 141.901 74.9841 141.899Z" fill="#E6E6E6"/>
<path d="M52.1231 147.691H0.84082V153.477H52.1231H80.757V147.691H52.1231Z" fill="white"/>
<path d="M73.9383 128.355C71.0525 126.646 68.3704 124.613 65.9437 122.296C65.3253 121.704 64.7226 121.094 64.1356 120.466C63.9111 120.223 62.5993 118.737 62.5993 118.737H18.9926C18.9926 118.737 17.6867 120.223 17.4563 120.466C16.8694 121.094 16.2667 121.704 15.6482 122.296C14.4379 123.451 13.1635 124.536 11.8311 125.547C10.4938 126.56 9.10106 127.497 7.65954 128.355C4.52789 130.208 0.840823 131.908 0.840823 136.113C0.840046 136.873 0.988841 137.626 1.27868 138.328C1.56852 139.03 1.99372 139.669 2.52993 140.206C3.06615 140.744 3.70283 141.17 4.40358 141.46C5.10433 141.751 5.85538 141.9 6.61371 141.899H74.9841C76.5152 141.899 77.9835 141.289 79.0662 140.204C80.1488 139.119 80.757 137.648 80.757 136.113C80.757 131.878 77.0699 130.208 73.9383 128.355Z" fill="white"/>
<path d="M3.85983 135.858C3.85875 134.944 4.10275 134.046 4.56633 133.258C5.02992 132.47 5.69608 131.822 6.49516 131.381C5.48189 131.418 4.51578 131.819 3.77368 132.512C3.03157 133.204 2.5631 134.141 2.45405 135.152C2.34499 136.162 2.60263 137.178 3.17981 138.014C3.75698 138.849 4.61507 139.448 5.59702 139.702C5.05055 139.222 4.6128 138.631 4.31316 137.968C4.01352 137.306 3.85894 136.586 3.85983 135.858Z" fill="#E6E6E6"/>
<path d="M74.2868 35.1424C71.7338 28.8063 67.5175 23.2808 62.0852 19.152C59.3607 17.109 56.381 15.4325 53.222 14.1653C50.3031 12.9809 43.2953 11.3877 43.2953 11.749V1.36116C43.2966 1.18545 43.2536 1.01226 43.1702 0.857683C43.0868 0.703109 42.9658 0.572172 42.8184 0.477034C42.671 0.381896 42.502 0.325651 42.3272 0.313521C42.1523 0.301392 41.9771 0.333782 41.8181 0.407667C39.4684 1.50731 37.4132 3.15098 35.8218 5.20318C34.2305 7.25538 33.1486 9.65732 32.6654 12.211C29.9296 12.211 28.0034 13.5909 26.2721 15.9243L7.88989 39.0748C7.01954 40.1138 6.45152 41.373 6.24818 42.7142C6.04483 44.0555 6.21403 45.4269 6.73717 46.6781C7.26031 47.9294 8.1172 49.012 9.21382 49.8072C10.3104 50.6024 11.6044 51.0795 12.9537 51.1861C13.9155 51.2614 14.8828 51.1488 15.8018 50.8544C16.8387 48.969 18.2471 47.3144 19.9412 45.991C21.6354 44.6675 23.5802 43.7028 25.6576 43.1554C26.1932 43.0375 26.74 42.9779 27.2884 42.9777C27.7583 42.9764 28.2272 43.0201 28.6888 43.108C29.1142 43.1909 29.516 43.3686 29.9355 43.4752C32.608 44.174 35.4453 43.8342 37.8782 42.5238C40.3111 41.2133 42.1597 39.0293 43.053 36.4098C43.1239 37.2863 43.1653 38.1865 43.1653 39.0689C43.1719 45.1972 41.4447 51.2018 38.1842 56.3859C37.9006 56.7768 36.8193 58.2159 35.2298 59.9749C31.7318 63.8244 27.2352 66.5487 23.5127 70.1554C15.4433 78.009 10.73 88.6951 10.3657 99.9628C10.2889 101.301 10.3243 102.64 10.3243 103.978C10.3253 105.781 10.9107 107.535 11.9924 108.976C13.074 110.417 14.5934 111.467 16.3217 111.967C17.5105 112.182 18.7202 112.255 19.9261 112.187H62.8179C64.9389 112.196 66.9786 111.369 68.4965 109.885C70.0144 108.4 70.8887 106.376 70.9306 104.251C70.9306 103.789 70.8656 103.327 70.842 102.859C70.6883 100.36 70.6095 97.8426 70.6056 95.3078C70.5504 85.7233 71.5632 76.1626 73.625 66.8034C74.0623 64.9141 74.5527 63.0545 75.0963 61.2364C77.6135 52.7437 77.6194 43.4219 74.2868 35.1424Z" fill="white"/>
<path d="M19.9614 112.198H62.8591C64.9749 112.197 67.0058 111.364 68.5152 109.878C70.0245 108.391 70.8918 106.371 70.9305 104.25L70.8418 102.859C70.6882 100.359 70.6094 97.8425 70.6055 95.3077C70.5671 86.4489 71.4244 77.6091 73.164 68.9235C70.381 79.4594 58.3921 111.979 16.3571 111.979C16.9381 112.117 17.5326 112.191 18.1297 112.198H19.9614Z" fill="#E6E6E6"/>
<path d="M37.6995 11.7548H43.3129V1.36105C43.3129 1.36105 36.9668 11.7548 37.6995 11.7548Z" fill="#E6E6E6"/>
<path d="M16.357 30.434L9.11879 39.5366C8.51649 40.2544 8.08398 41.0994 7.85362 42.0084C7.62325 42.9174 7.601 43.8669 7.78856 44.7857C7.97611 45.7046 8.36859 46.569 8.93663 47.3143C9.50466 48.0596 10.2335 48.6664 11.0687 49.0894C11.0687 48.7933 11.0687 48.4972 11.0687 48.1892C11.056 41.8791 12.8951 35.7044 16.357 30.434Z" fill="#E6E6E6"/>
</svg>
