<svg width="16" height="17" viewBox="0 0 16 17" fill="none" xmlns="http://www.w3.org/2000/svg">
<path d="M7.95235 4.30158C5.73013 4.30158 3.88885 6.11111 3.88885 8.36507C3.88885 10.619 5.69838 12.4286 7.95235 12.4286C10.2063 12.4286 12.0158 10.5873 12.0158 8.36507C12.0158 6.14285 10.1746 4.30158 7.95235 4.30158ZM7.95235 10.9682C6.52378 10.9682 5.34917 9.79365 5.34917 8.36507C5.34917 6.9365 6.52378 5.7619 7.95235 5.7619C9.38092 5.7619 10.5555 6.9365 10.5555 8.36507C10.5555 9.79365 9.38092 10.9682 7.95235 10.9682Z" fill="white"/>
<path d="M12.1746 5.12698C12.6831 5.12698 13.0952 4.7148 13.0952 4.20634C13.0952 3.69789 12.6831 3.28571 12.1746 3.28571C11.6662 3.28571 11.254 3.69789 11.254 4.20634C11.254 4.7148 11.6662 5.12698 12.1746 5.12698Z" fill="white"/>
<path d="M14.5555 1.82539C13.7301 0.968248 12.5555 0.523804 11.2222 0.523804H4.68252C1.92062 0.523804 0.0793457 2.36507 0.0793457 5.12698V11.6349C0.0793457 13 0.52379 14.1746 1.41268 15.0317C2.26982 15.8571 3.41268 16.2698 4.71427 16.2698H11.1905C12.5555 16.2698 13.6984 15.8254 14.5238 15.0317C15.3809 14.2063 15.8254 13.0317 15.8254 11.6667V5.12698C15.8254 3.79364 15.3809 2.65079 14.5555 1.82539ZM14.4286 11.6667C14.4286 12.6508 14.0793 13.4444 13.5079 13.9841C12.9365 14.5238 12.1428 14.8095 11.1905 14.8095H4.71427C3.76189 14.8095 2.96823 14.5238 2.39681 13.9841C1.82538 13.4127 1.53966 12.619 1.53966 11.6349V5.12698C1.53966 4.1746 1.82538 3.38095 2.39681 2.80952C2.93649 2.26984 3.76189 1.98412 4.71427 1.98412H11.2539C12.2063 1.98412 13 2.26984 13.5714 2.84126C14.1111 3.41269 14.4286 4.20634 14.4286 5.12698V11.6667Z" fill="white"/>
</svg>
