<svg width="96" height="74" viewBox="0 0 96 74" fill="none" xmlns="http://www.w3.org/2000/svg">
<g clip-path="url(#clip0_71_196)">
<path d="M23.3424 39.0956H24.8806V35.9999H23.3612C22.8878 35.9913 18.7348 35.7333 18.7348 29.8084C18.7348 26.7264 17.7094 24.7882 16.4258 23.617C17.7128 22.4509 18.7348 20.5212 18.7348 17.4255C18.7348 11.5075 22.8878 11.2495 23.3493 11.234H24.8874V8.13831H23.3493C20.6934 8.13831 15.6704 10.0921 15.6704 17.4152C15.6704 21.7458 13.0915 22.0381 12.5753 22.0588L12.5958 25.1545C12.7223 25.1545 15.6721 25.2061 15.6721 29.7981C15.6602 37.1419 20.6831 39.0904 23.3424 39.0956ZM84.527 22.0863C84.4006 22.0863 81.4507 22.0347 81.4507 17.4427C81.4507 10.1196 76.4278 8.17098 73.7599 8.16582H72.2217V11.2615H73.7411C74.2145 11.2701 78.3693 11.5281 78.3693 17.453C78.3693 20.535 79.3947 22.4733 80.6765 23.6445C79.3896 24.8088 78.3693 26.7402 78.3693 29.8359C78.3693 35.7539 74.2145 36.0119 73.7548 36.0274H72.2166V39.1231H73.7548C76.4124 39.1231 81.4353 37.1694 81.4353 29.8463C81.4353 25.5157 84.0126 25.2233 84.5287 25.2027L84.527 22.0863Z" fill="white"/>
<path d="M6.91489 51.9653L7.22252 54.2011L6.55428 54.2682L6.00737 52.7495C5.92188 52.7311 5.83496 52.7202 5.74759 52.7169C5.65359 52.7169 5.56302 52.7169 5.47415 52.7169H4.67259C4.53929 52.7169 4.41794 52.7169 4.31198 52.7289C4.31198 52.8011 4.31198 52.9697 4.31198 53.2328C4.31198 53.4959 4.31198 53.8107 4.31198 54.1736V56.8686C4.31198 57.4143 4.31653 57.8959 4.32565 58.3132C4.33419 58.7295 4.33932 59.0132 4.33932 59.1732L5.48782 59.3331L5.4468 59.9248H1.80136L1.76205 59.3331L2.89687 59.1732C2.89687 59.0201 2.89687 58.7363 2.91055 58.3132C2.92422 57.8902 2.92251 57.4138 2.92251 56.8686V53.2156C2.92251 52.9525 2.92251 52.7839 2.91055 52.7117C2.81142 52.7031 2.69862 52.6997 2.56873 52.6997H1.73471C1.64584 52.6997 1.55526 52.6997 1.46126 52.6997C1.37389 52.7029 1.28696 52.7138 1.20148 52.7323L0.66654 54.2802L0 54.1994L0.280289 51.9636C0.386252 51.9636 0.49905 51.979 0.622103 51.9842L1.00152 51.998L1.39632 52.01C1.5245 52.01 1.64754 52.01 1.76376 52.01H5.44851C5.55618 52.01 5.6724 52.01 5.80228 52.01L6.19708 51.998L6.58333 51.9842C6.70752 51.9716 6.81804 51.9653 6.91489 51.9653Z" fill="white"/>
<path d="M15.8909 59.9678C15.6414 59.942 15.3919 59.923 15.1441 59.9144C14.8963 59.9058 14.6621 59.9007 14.4485 59.9007H9.85621L9.81519 59.3366L10.6578 59.1491C10.6835 59.0433 10.6967 58.9347 10.6971 58.8258C10.6971 58.6538 10.7125 58.4285 10.7176 58.1378C10.7227 57.8472 10.7176 57.5152 10.7176 57.13V54.791C10.7176 54.3972 10.7176 54.0549 10.7176 53.7591C10.7176 53.4633 10.7056 53.2431 10.6971 53.0711C10.6979 52.9672 10.6847 52.8636 10.6578 52.7633L9.81519 52.5741L9.85621 52.01H14.1015C14.2348 52.01 14.3904 52.01 14.5698 52.01C14.7493 52.01 14.9304 51.9997 15.1167 51.9911L15.6499 51.9636L15.9319 53.8038L15.291 53.8984L14.8228 52.7564C14.7339 52.7392 14.645 52.7255 14.5561 52.7151C14.4673 52.7065 14.3733 52.7031 14.2759 52.7031H12.9274C12.7565 52.7031 12.6044 52.7031 12.466 52.7031C12.3389 52.7061 12.2122 52.717 12.0865 52.7358C12.0865 52.7805 12.0865 52.8837 12.0865 53.0454C12.0865 53.207 12.0763 53.3893 12.0729 53.6163C12.0694 53.8434 12.0729 54.0669 12.0729 54.3043V57.6769C12.0729 57.8919 12.0729 58.0966 12.0729 58.2892C12.0729 58.4818 12.0814 58.6521 12.0865 58.8051C12.0917 58.9582 12.0865 59.0597 12.0865 59.1216L12.507 59.1491C12.6539 59.1577 12.8283 59.1611 13.0334 59.1611H14.1545C14.3596 59.1611 14.522 59.1611 14.6433 59.1611C14.7646 59.1611 14.8569 59.1491 14.9236 59.1405L15.0945 59.113L15.8021 57.8231L16.443 57.9452L15.8909 59.9678ZM14.3425 57.1592L14.1955 56.2597C14.1123 56.2374 14.0269 56.2241 13.9409 56.2202C13.8264 56.2099 13.6879 56.2064 13.5273 56.2064H12.6061C12.4813 56.2064 12.3532 56.2064 12.2198 56.2202L11.8182 56.246V55.4531C11.9515 55.4617 12.0865 55.4686 12.2198 55.4738C12.3532 55.4789 12.4813 55.4738 12.6061 55.4738H13.5273C13.6879 55.4738 13.8264 55.4738 13.9409 55.46C14.0554 55.4463 14.1425 55.4463 14.1955 55.4463L14.3425 54.5193H14.9561V57.1592H14.3425Z" fill="white"/>
<path d="M23.4911 60.021C22.7459 60.0329 22.0072 59.8797 21.3275 59.5722C20.6996 59.2829 20.1688 58.8162 19.7996 58.229C19.4032 57.5669 19.2061 56.8034 19.2321 56.031C19.2278 55.4719 19.3323 54.9175 19.5398 54.3989C19.7395 53.8998 20.0444 53.4503 20.4336 53.0814C20.8429 52.6988 21.324 52.4024 21.8487 52.2095C22.443 51.9908 23.0721 51.8836 23.7048 51.893C24.1062 51.894 24.5066 51.932 24.9011 52.0065C25.268 52.0707 25.6264 52.1769 25.9693 52.323L26.0633 54.2303L25.395 54.2853L24.9814 52.9679C24.786 52.85 24.5713 52.7679 24.3474 52.7254C24.0996 52.6724 23.847 52.6453 23.5937 52.6446C23.0515 52.6219 22.5151 52.7653 22.0555 53.0556C21.653 53.3313 21.3417 53.7218 21.1617 54.177C20.9592 54.6852 20.8593 55.2289 20.8677 55.7764C20.8492 56.4242 20.9796 57.0676 21.2488 57.6562C21.4714 58.1411 21.8272 58.5517 22.2743 58.8395C22.7026 59.108 23.1984 59.2477 23.7031 59.2419C23.9559 59.2429 24.2077 59.2094 24.4516 59.1422C24.6828 59.0788 24.9033 58.9815 25.1062 58.8533L25.6531 57.6029L26.3607 57.6838L25.9727 59.4036C25.211 59.8067 24.3637 60.0185 23.5031 60.021H23.4911Z" fill="white"/>
<path d="M29.1294 59.9007L29.0884 59.3366L29.9173 59.1491C29.9431 59.0433 29.9563 58.9347 29.9566 58.8258C29.9566 58.6538 29.972 58.4285 29.9771 58.1378C29.9822 57.8472 29.9771 57.5153 29.9771 57.13V54.791C29.9771 54.3972 29.9771 54.0549 29.9771 53.7591C29.9771 53.4633 29.9651 53.2431 29.9566 53.0712C29.9574 52.9672 29.9442 52.8637 29.9173 52.7633L29.0884 52.5741L29.1294 52.01H32.2057L32.2314 52.5741L31.4178 52.7633C31.3883 52.8592 31.3722 52.9587 31.37 53.0591C31.3563 53.2191 31.3478 53.4444 31.3443 53.7299C31.3409 54.0154 31.3443 54.3714 31.3443 54.791V57.13C31.3443 57.5416 31.3443 57.8885 31.3443 58.1705C31.3443 58.4526 31.3529 58.6744 31.37 58.8361C31.3736 58.9408 31.3897 59.0448 31.4178 59.1457L32.2314 59.3331L32.2057 59.8972L29.1294 59.9007ZM31.1324 56.289V55.4291C31.3187 55.4463 31.5717 55.46 31.893 55.4686C32.2143 55.4772 32.6091 55.4824 33.0893 55.4824C33.5696 55.4824 33.9438 55.4824 34.2583 55.4686C34.5728 55.4549 34.8206 55.4463 34.9983 55.4291V56.289C34.8035 56.2701 34.5557 56.2563 34.2583 56.2477C33.9609 56.2391 33.5747 56.234 33.0893 56.234C32.6039 56.234 32.1886 56.234 31.881 56.2477C31.5734 56.2615 31.3119 56.2649 31.141 56.2873L31.1324 56.289ZM33.9216 59.9007L33.896 59.3366L34.7095 59.1491C34.7376 59.0482 34.7537 58.9443 34.7574 58.8395C34.7693 58.6779 34.7796 58.456 34.783 58.1739C34.7864 57.8919 34.783 57.5445 34.783 57.1334V54.7944C34.783 54.3748 34.783 54.0211 34.783 53.7333C34.783 53.4478 34.7693 53.2173 34.7574 53.0626C34.7552 52.9622 34.7391 52.8626 34.7095 52.7667L33.896 52.5776L33.9216 52.0135H37.0202L37.0595 52.5776L36.2323 52.7667C36.2025 52.8649 36.1869 52.9668 36.1861 53.0694C36.1725 53.2414 36.1605 53.4598 36.152 53.7471C36.1434 54.0343 36.1383 54.3834 36.1383 54.7944V57.1334C36.1383 57.5279 36.1428 57.8684 36.152 58.155C36.152 58.4405 36.1725 58.671 36.1861 58.8327C36.1884 58.9397 36.2039 59.046 36.2323 59.1491L37.0595 59.3366L37.0202 59.9007H33.9216Z" fill="white"/>
<path d="M44.4203 60.0211C43.6563 60.0339 42.8985 59.8808 42.1985 59.5722C41.5634 59.2883 41.025 58.8231 40.6501 58.2342C40.254 57.5802 40.0568 56.8239 40.0827 56.0585C40.0772 55.4938 40.1859 54.9338 40.4023 54.4126C40.6108 53.9147 40.9172 53.4642 41.303 53.0884C41.7098 52.7 42.1923 52.4008 42.7198 52.2095C43.3223 51.9905 43.9593 51.8833 44.5998 51.8931C44.996 51.8952 45.3913 51.9332 45.7807 52.0066C46.1464 52.0688 46.5033 52.175 46.8438 52.323L46.9104 54.1237L46.2559 54.177L45.8542 52.9731C45.6549 52.8479 45.4331 52.7632 45.2014 52.7237C44.9637 52.6772 44.7223 52.6524 44.4801 52.6498C43.926 52.6264 43.3775 52.7695 42.9044 53.0608C42.4953 53.3327 42.1786 53.724 41.9969 54.1822C41.7944 54.6904 41.6945 55.2341 41.7029 55.7816C41.684 56.4339 41.8163 57.0816 42.0892 57.6735C42.3101 58.1575 42.6666 58.566 43.1151 58.8489C43.5635 59.1318 44.0843 59.2768 44.6134 59.2661C44.8544 59.2628 45.0942 59.2311 45.3278 59.1715C45.5785 59.114 45.8162 59.0095 46.0286 58.8636L45.7346 59.6014V58.1912C45.7346 57.9315 45.7346 57.6907 45.7209 57.4654C45.7165 57.2928 45.7034 57.1206 45.6816 56.9494L44.7604 56.7895L44.7861 56.2116H47.618L47.6573 56.762L47.0437 56.9339C47.0344 57.0484 47.0344 57.1635 47.0437 57.2779C47.0437 57.4499 47.0437 57.6632 47.0437 57.8953C47.0437 58.1275 47.0437 58.3769 47.0574 58.5833C47.0711 58.7897 47.0745 59.0253 47.0831 59.2712C46.6883 59.5171 46.2582 59.7004 45.8081 59.8147C45.3564 59.944 44.8899 60.0134 44.4203 60.0211Z" fill="white"/>
<path d="M49.9766 59.9007L49.9509 59.3366L50.6175 59.1491L53.352 52.2955L54.2338 51.7795L57.1837 59.156L57.8673 59.3435L57.8263 59.9076H54.8628L54.8218 59.3435L55.6507 59.156L54.897 57.2263L54.75 56.7964L53.3229 53.3033L53.6647 53.2105L52.3693 56.7964L52.2223 57.2005L51.5386 59.1491L52.3658 59.3366L52.3385 59.9007H49.9766ZM51.9266 57.4826V56.7035C52.0964 56.7126 52.3168 56.7212 52.588 56.7293C52.8598 56.7396 53.1947 56.743 53.5964 56.743C53.998 56.743 54.3347 56.743 54.6098 56.7293C54.885 56.7155 55.1038 56.7121 55.2644 56.7035V57.4688C55.0064 57.4688 54.7397 57.4688 54.4629 57.455C54.186 57.4413 53.8989 57.4413 53.5964 57.4413C53.2939 57.4413 53.0221 57.4413 52.7538 57.455L51.9266 57.4826Z" fill="white"/>
<path d="M60.366 52.0134H62.8236L65.6265 58.3012H65.3462L68.0175 52.0134H70.3811L70.4204 52.5775L69.5796 52.7495C69.5705 52.8561 69.5705 53.0711 69.5796 53.3945C69.5887 53.7178 69.5972 54.0939 69.6052 54.5227L69.6718 56.9546C69.6821 57.3759 69.6924 57.7371 69.706 58.0363C69.7197 58.3356 69.73 58.5781 69.7402 58.7621C69.7505 58.9461 69.7573 59.0734 69.7659 59.1456L70.5947 59.3331L70.5537 59.8972H67.4774L67.4381 59.3331L68.2653 59.1456C68.2762 59.0313 68.2808 58.9165 68.279 58.8017V58.1739C68.279 57.8999 68.2744 57.5439 68.2653 57.1059L68.2396 52.4038H68.6669L65.4487 59.9419H64.8745L61.482 52.3901H61.9759L61.9896 56.9717C61.9896 57.7056 61.9896 58.2318 61.9896 58.5506C61.9896 58.8693 61.9964 59.0688 62.0101 59.1491L62.9313 59.3365L62.892 59.9007H60.1677L60.1267 59.3365L61.0479 59.1491C61.0479 59.0855 61.0633 58.9651 61.0684 58.7862C61.0735 58.6073 61.0804 58.3803 61.0889 58.1069C61.0975 57.8334 61.1026 57.5221 61.1026 57.173L61.1419 54.5399C61.1505 54.1013 61.1539 53.7298 61.1419 53.4254C61.1299 53.121 61.1419 52.9095 61.1419 52.7667L60.3147 52.5775L60.366 52.0134Z" fill="white"/>
<path d="M74.3803 59.1491C74.4112 58.9308 74.4289 58.7108 74.4333 58.4904C74.4526 58.1223 74.4617 57.67 74.4606 57.1334V54.7944C74.4606 54.2131 74.4515 53.7384 74.4333 53.3704C74.4307 53.159 74.413 52.948 74.3803 52.7392L73.5531 52.5775L73.5787 52.0134H76.9439C77.8429 52.0134 78.5196 52.1745 78.9743 52.4967C79.1977 52.6545 79.3777 52.8669 79.4973 53.1139C79.6168 53.3608 79.6721 53.6343 79.6579 53.9087C79.6593 54.1486 79.6065 54.3856 79.5034 54.6019C79.4004 54.8183 79.2498 55.0082 79.0631 55.1573C78.6213 55.5157 78.0751 55.7187 77.5079 55.7352L77.4275 55.6285C78.2741 55.6652 78.9241 55.8556 79.3776 56.1995C79.5983 56.3612 79.7761 56.5751 79.8953 56.8222C80.0145 57.0693 80.0715 57.3422 80.0612 57.6167C80.0691 57.9504 79.9902 58.2805 79.8322 58.574C79.6742 58.8676 79.4426 59.1144 79.1605 59.2901C78.5601 59.6971 77.7346 59.9007 76.6841 59.9007H73.5856L73.5599 59.3365L74.3803 59.1491ZM75.7954 57.5221C75.7954 57.9073 75.7954 58.2513 75.8091 58.554C75.8227 58.8567 75.8262 59.0493 75.8364 59.1388C75.9424 59.156 76.0877 59.1766 76.2705 59.199C76.423 59.2195 76.5765 59.231 76.7302 59.2334C77.3541 59.2334 77.8223 59.1095 78.1385 58.8636C78.2989 58.7324 78.4258 58.5645 78.5084 58.3739C78.5911 58.1833 78.6272 57.9756 78.6136 57.768C78.6136 57.2486 78.4427 56.8611 78.1009 56.6054C77.7591 56.3497 77.2515 56.2225 76.5781 56.2236H75.9783C75.8638 56.2232 75.7495 56.2318 75.6364 56.2494V55.4978C75.7868 55.5064 75.9287 55.5133 76.0637 55.5168C76.1987 55.5202 76.3474 55.5168 76.5166 55.5168C77.0601 55.5168 77.4788 55.3895 77.7728 55.1349C77.9215 54.999 78.0381 54.8312 78.114 54.6441C78.19 54.4569 78.2235 54.255 78.212 54.0532C78.2231 53.8611 78.1918 53.6689 78.1203 53.4905C78.0488 53.3121 77.9388 53.1518 77.7984 53.0213C77.5233 52.7805 77.1148 52.6584 76.5833 52.6584H75.8227C75.8142 52.722 75.8073 52.9163 75.8022 53.2431C75.7971 53.5699 75.8022 53.9448 75.8022 54.3645L75.7954 57.5221Z" fill="white"/>
<path d="M83.0726 59.9007L83.0316 59.3366L83.8605 59.1491C83.8863 59.0433 83.8995 58.9347 83.8998 58.8258C83.8998 58.6538 83.9152 58.4285 83.9203 58.1378C83.9254 57.8472 83.9203 57.5153 83.9203 57.13V54.791C83.9203 54.3972 83.9203 54.0549 83.9203 53.7591C83.9203 53.4633 83.9084 53.2431 83.8998 53.0712C83.9007 52.9672 83.8874 52.8637 83.8605 52.7633L83.0316 52.5741L83.0726 52.01H86.149L86.1883 52.5741L85.3611 52.7633C85.3315 52.8592 85.3154 52.9587 85.3132 53.0591C85.3013 53.2191 85.291 53.4444 85.2876 53.7299C85.2842 54.0154 85.2876 54.3714 85.2876 54.791V57.13C85.2876 57.5416 85.2876 57.8885 85.2876 58.1705C85.2876 58.4526 85.3013 58.6744 85.3132 58.8361C85.3169 58.9408 85.3329 59.0448 85.3611 59.1457L86.1883 59.3331L86.149 59.8972L83.0726 59.9007Z" fill="white"/>
<path d="M95.6923 51.9653L96 54.2011L95.3317 54.2682L94.7848 52.7495C94.6993 52.7311 94.6124 52.7202 94.525 52.7169C94.431 52.7169 94.3405 52.7169 94.2516 52.7169H93.45C93.3167 52.7169 93.1954 52.7169 93.0894 52.7289C93.0894 52.8011 93.0894 52.9697 93.0894 53.2328C93.0894 53.4959 93.0894 53.8107 93.0894 54.1736V56.8686C93.0894 57.4143 93.094 57.8959 93.1031 58.3132C93.1031 58.7295 93.1168 59.0132 93.1168 59.1732L94.2653 59.3331L94.2242 59.9248H90.5925L90.5532 59.3331L91.688 59.1732C91.688 59.0201 91.688 58.7363 91.7017 58.3132C91.7153 57.8902 91.7136 57.4138 91.7136 56.8686V53.2156C91.7136 52.9525 91.7136 52.7839 91.7017 52.7117C91.6025 52.7031 91.4897 52.6997 91.3599 52.6997H90.5258C90.437 52.6997 90.3464 52.6997 90.2524 52.6997C90.165 52.7028 90.0781 52.7137 89.9926 52.7323L89.4577 54.2802L88.7894 54.1994L89.0714 51.9636C89.1774 51.9636 89.2902 51.979 89.4132 51.9842L89.7927 51.998L90.1874 52.01C90.3156 52.01 90.4387 52.01 90.5549 52.01H94.2396C94.3456 52.01 94.4635 52.01 94.5934 52.01L94.9865 51.998L95.3744 51.9842C95.4895 51.9716 95.5955 51.9653 95.6923 51.9653Z" fill="white"/>
<path d="M55.8061 32.4914H42.0259C41.9469 32.491 41.8691 32.5116 41.8005 32.5509C41.7318 32.5903 41.6746 32.6472 41.6346 32.7158C41.5946 32.7844 41.5733 32.8624 41.5726 32.9419C41.572 33.0215 41.5922 33.0998 41.6311 33.169L42.6258 34.3729H55.2046L56.1992 33.169C56.2381 33.0999 56.2582 33.0218 56.2577 32.9424C56.2572 32.863 56.2359 32.7851 56.1962 32.7165C56.1564 32.648 56.0994 32.5911 56.031 32.5516C55.9626 32.5121 55.885 32.4913 55.8061 32.4914Z" fill="white"/>
<path d="M58.8039 41.1165H39.0283C38.8089 41.1162 38.5917 41.1595 38.389 41.2439C38.1863 41.3283 38.0022 41.452 37.8471 41.6081C37.692 41.7642 37.569 41.9495 37.4852 42.1535C37.4013 42.3574 37.3583 42.576 37.3585 42.7968H60.4737C60.4732 42.3513 60.2971 41.9241 59.9841 41.6091C59.671 41.2941 59.2466 41.1169 58.8039 41.1165Z" fill="#E6E6E6"/>
<path d="M52.1915 42.7985H37.3585V44.4788H52.1915H60.4737V42.7985H52.1915Z" fill="white"/>
<path d="M58.5014 37.1832C57.6667 36.687 56.8909 36.0967 56.189 35.4238C56.0101 35.2518 55.8358 35.0746 55.666 34.8923C55.6011 34.8218 55.2217 34.3901 55.2217 34.3901H42.6088C42.6088 34.3901 42.2311 34.8218 42.1644 34.8923C41.9946 35.0746 41.8203 35.2518 41.6414 35.4238C41.2914 35.7591 40.9228 36.0744 40.5374 36.368C40.1506 36.6621 39.7477 36.9342 39.3308 37.1832C38.425 37.7215 37.3585 38.2151 37.3585 39.4362C37.3583 39.6569 37.4013 39.8755 37.4852 40.0795C37.569 40.2834 37.692 40.4688 37.8471 40.6248C38.0022 40.7809 38.1863 40.9047 38.389 40.989C38.5917 41.0734 38.8089 41.1167 39.0283 41.1165H58.8039C59.2467 41.1165 59.6714 40.9394 59.9846 40.6243C60.2977 40.3092 60.4737 39.8818 60.4737 39.4362C60.4737 38.2065 59.4072 37.7215 58.5014 37.1832Z" fill="white"/>
<path d="M38.2318 39.3622C38.2315 39.0967 38.3021 38.8359 38.4362 38.6072C38.5702 38.3785 38.7629 38.1902 38.9941 38.062C38.701 38.0727 38.4215 38.1893 38.2069 38.3904C37.9922 38.5915 37.8567 38.8637 37.8252 39.1571C37.7937 39.4505 37.8682 39.7455 38.0351 39.9882C38.2021 40.2308 38.4503 40.4049 38.7343 40.4784C38.5762 40.3392 38.4496 40.1676 38.3629 39.9751C38.2763 39.7825 38.2316 39.5736 38.2318 39.3622Z" fill="#E6E6E6"/>
<path d="M58.6022 10.1144C57.8637 8.27444 56.6442 6.66986 55.0729 5.47084C54.2849 4.87756 53.423 4.39071 52.5093 4.02272C51.665 3.67875 49.6381 3.21611 49.6381 3.32103V0.304406C49.6385 0.25338 49.626 0.203085 49.6019 0.158197C49.5778 0.113309 49.5428 0.0752845 49.5002 0.0476565C49.4575 0.0200285 49.4087 0.00369505 49.3581 0.000172673C49.3075 -0.0033497 49.2568 0.00605644 49.2108 0.0275125C48.5312 0.346848 47.9367 0.824169 47.4765 1.42013C47.0162 2.01608 46.7032 2.7136 46.5635 3.45517C45.7722 3.45517 45.215 3.8559 44.7143 4.53352L39.3974 11.2564C39.1456 11.5581 38.9813 11.9238 38.9225 12.3133C38.8637 12.7028 38.9126 13.1011 39.0639 13.4644C39.2153 13.8278 39.4631 14.1421 39.7803 14.3731C40.0975 14.604 40.4717 14.7425 40.862 14.7735C41.1402 14.7954 41.42 14.7627 41.6858 14.6772C41.9857 14.1297 42.3931 13.6492 42.8831 13.2648C43.3732 12.8805 43.9357 12.6004 44.5365 12.4414C44.6915 12.4072 44.8496 12.3899 45.0082 12.3898C45.1441 12.3894 45.2798 12.4021 45.4133 12.4276C45.5363 12.4517 45.6525 12.5033 45.7739 12.5343C46.5469 12.7372 47.3675 12.6385 48.0712 12.258C48.7749 11.8774 49.3096 11.2432 49.568 10.4825C49.5885 10.737 49.6005 10.9984 49.6005 11.2547C49.6024 13.0343 49.1028 14.7781 48.1597 16.2835C48.0777 16.397 47.765 16.815 47.3052 17.3258C46.2934 18.4437 44.9928 19.2348 43.9161 20.2822C41.5821 22.5628 40.2188 25.6661 40.1135 28.9382C40.0912 29.3269 40.1015 29.7156 40.1015 30.1043C40.1018 30.6279 40.2711 31.1373 40.584 31.5557C40.8968 31.9741 41.3363 32.279 41.8362 32.4243C42.18 32.4865 42.5299 32.5079 42.8787 32.488H55.2848C55.8983 32.4908 56.4883 32.2507 56.9273 31.8195C57.3664 31.3883 57.6193 30.8006 57.6314 30.1834C57.6314 30.0492 57.6126 29.9151 57.6058 29.7792C57.5613 29.0534 57.5385 28.3225 57.5374 27.5864C57.5214 24.8031 57.8144 22.0267 58.4107 19.3088C58.5372 18.7601 58.6791 18.2201 58.8363 17.6921C59.5644 15.2258 59.5661 12.5188 58.6022 10.1144Z" fill="white"/>
<path d="M42.8891 32.4914H55.2969C55.9089 32.491 56.4963 32.2491 56.9329 31.8174C57.3695 31.3858 57.6203 30.7991 57.6315 30.1833L57.6059 29.7792C57.5614 29.0534 57.5386 28.3225 57.5375 27.5864C57.5264 25.0138 57.7744 22.4467 58.2775 19.9244C57.4726 22.9841 54.0049 32.4277 41.8466 32.4277C42.0146 32.4678 42.1866 32.4891 42.3593 32.4914H42.8891Z" fill="#E6E6E6"/>
<path d="M48.0196 3.32272H49.6432V0.304382C49.6432 0.304382 47.8077 3.32272 48.0196 3.32272Z" fill="#E6E6E6"/>
<path d="M41.8466 8.74713L39.753 11.3905C39.5788 11.599 39.4537 11.8444 39.387 12.1083C39.3204 12.3723 39.314 12.648 39.3682 12.9149C39.4225 13.1817 39.536 13.4327 39.7003 13.6492C39.8646 13.8656 40.0754 14.0418 40.317 14.1647C40.317 14.0787 40.317 13.9927 40.317 13.9032C40.3133 12.0708 40.8452 10.2777 41.8466 8.74713Z" fill="#E6E6E6"/>
</g>
<defs>
<clipPath id="clip0_71_196">
<rect width="96" height="74" fill="white"/>
</clipPath>
</defs>
</svg>
