<svg width="36" height="36" viewBox="0 0 36 36" fill="none" xmlns="http://www.w3.org/2000/svg">
<path d="M26 17C26.5523 17 27 17.4477 27 18C27 18.5523 26.5523 19 26 19L26 17ZM9.29289 18.7071C8.90237 18.3166 8.90237 17.6834 9.29289 17.2929L15.6569 10.9289C16.0474 10.5384 16.6805 10.5384 17.0711 10.9289C17.4616 11.3195 17.4616 11.9526 17.0711 12.3431L11.4142 18L17.0711 23.6569C17.4616 24.0474 17.4616 24.6805 17.0711 25.0711C16.6805 25.4616 16.0474 25.4616 15.6569 25.0711L9.29289 18.7071ZM26 19L10 19L10 17L26 17L26 19Z" fill="#06D889"/>
<circle cx="18" cy="18" r="17.5" transform="matrix(-1 0 0 1 36 0)" stroke="#06D889"/>
</svg>
