<svg width="16" height="13" viewBox="0 0 16 13" fill="none" xmlns="http://www.w3.org/2000/svg">
<path d="M15.7757 1.78313C15.2008 2.03872 14.5819 2.21112 13.9327 2.28828C14.5956 1.8914 15.1039 1.26275 15.3436 0.512818C14.7235 0.8808 14.0371 1.14782 13.3059 1.29196C12.7208 0.668393 11.8867 0.278503 10.9637 0.278503C9.19176 0.278503 7.75507 1.71519 7.75507 3.48747C7.75507 3.73861 7.78333 3.98341 7.83826 4.21867C5.17126 4.08469 2.80652 2.80739 1.22379 0.865877C0.947564 1.33959 0.78945 1.89077 0.78945 2.47941C0.78945 3.59256 1.35587 4.57491 2.21693 5.15022C1.69115 5.13339 1.19617 4.98893 0.763415 4.74858C0.763097 4.76191 0.763097 4.77557 0.763097 4.78922C0.763097 6.3437 1.86927 7.64037 3.33738 7.93564C3.06814 8.00866 2.78462 8.04803 2.49188 8.04803C2.28487 8.04803 2.08389 8.02803 1.888 7.99025C2.29662 9.26501 3.48153 10.1931 4.88551 10.2188C3.78728 11.0795 2.40393 11.5926 0.900257 11.5926C0.641495 11.5926 0.385908 11.5774 0.134766 11.5475C1.55526 12.4584 3.24182 12.9893 5.05379 12.9893C10.9564 12.9893 14.1838 8.09979 14.1838 3.85926C14.1838 3.7202 14.1809 3.58145 14.1749 3.44366C14.8017 2.99217 15.3458 2.4267 15.7757 1.78313Z" fill="white"/>
</svg>
